HIERARCHY
ROOT Hips
{
	OFFSET -0.179506 -22.333345 2.821913
	CHANNELS 6 Xposition Yposition Zposition Zrotation Yrotation Xrotation 
	JOINT LeftUpLeg
	{
		OFFSET 6.951974 -9.140623 -0.681533
		CHANNELS 3 Zrotation Yrotation Xrotation
		JOINT LeftLeg
		{
			OFFSET 3.427654 -37.519855 -0.449580
			CHANNELS 3 Zrotation Yrotation Xrotation
			JOINT LeftFoot
			{
				OFFSET -1.359570 -39.796059 -4.369333
				CHANNELS 3 Zrotation Yrotation Xrotation
				JOINT LeftToe
				{
					OFFSET 2.635814 -5.579078 11.928840
					CHANNELS 3 Zrotation Yrotation Xrotation
					End Site
					{
						OFFSET 0.000000 0.000000 0.000000
					}
				}
			}
		}
	}
	JOINT RightUpLeg
	{
		OFFSET -6.767048 -9.052170 -0.431982
		CHANNELS 3 Zrotation Yrotation Xrotation
		JOINT RightLeg
		{
			OFFSET -3.829005 -38.256897 -0.885003
			CHANNELS 3 Zrotation Yrotation Xrotation
			JOINT RightFoot
			{
				OFFSET 1.577377 -39.841461 -4.231180
				CHANNELS 3 Zrotation Yrotation Xrotation
				JOINT RightToe
				{
					OFFSET -2.537174 -4.814398 12.334795
					CHANNELS 3 Zrotation Yrotation Xrotation
					End Site
					{
						OFFSET 0.000000 0.000000 0.000000
					}
				}
			}
		}
	}
	JOINT Spine
	{
		OFFSET -0.253288 10.896323 -2.669631
		CHANNELS 3 Zrotation Yrotation Xrotation
		JOINT Spine1
		{
			OFFSET 0.548704 13.518043 0.109247
			CHANNELS 3 Zrotation Yrotation Xrotation
			JOINT Spine2
			{
				OFFSET 0.145701 5.292222 2.542457
				CHANNELS 3 Zrotation Yrotation Xrotation
				JOINT Neck
				{
					OFFSET -0.277840 21.387037 -4.285703
					CHANNELS 3 Zrotation Yrotation Xrotation
					JOINT Head
					{
						OFFSET 0.515184 6.496960 5.134897
						CHANNELS 3 Zrotation Yrotation Xrotation
						End Site
						{
							OFFSET 0.000000 0.000000 0.000000
						}
					}
				}
				JOINT LeftShoulder
				{
					OFFSET 7.884473 12.174932 -3.408961
					CHANNELS 3 Zrotation Yrotation Xrotation
					JOINT LeftArm
					{
						OFFSET 9.097692 3.046888 -0.886815
						CHANNELS 3 Zrotation Yrotation Xrotation
						JOINT LeftForeArm
						{
							OFFSET 25.961220 -1.277207 -2.745643
							CHANNELS 3 Zrotation Yrotation Xrotation
							JOINT LeftHand
							{
								OFFSET 24.923361 0.898606 -0.117091
								CHANNELS 3 Zrotation Yrotation Xrotation
								End Site
								{
									OFFSET 0.000000 0.000000 0.000000
								}
							}
						}
					}
				}
				JOINT RightShoulder
				{
					OFFSET -8.175920 11.883285 -3.861528
					CHANNELS 3 Zrotation Yrotation Xrotation
					JOINT RightArm
					{
						OFFSET -9.601238 3.255117 -0.914307
						CHANNELS 3 Zrotation Yrotation Xrotation
						JOINT RightForeArm
						{
							OFFSET -25.374195 -1.332924 -2.140099
							CHANNELS 3 Zrotation Yrotation Xrotation
							JOINT RightHand
							{
								OFFSET -25.529810 0.777228 -0.555919
								CHANNELS 3 Zrotation Yrotation Xrotation
								End Site
								{
									OFFSET 0.000000 0.000000 0.000000
								}
							}
						}
					}
				}
			}
		}
	}
}
MOTION
Frames: 11
Frame Time: 0.033333
-0.179506 110.601074 2.821913 179.947309 3.178539 179.718083 13.668318 6.455610 0.867551 -0.927424 -1.722744 15.011669 -1.660229 9.466743 -14.842154 0.601163 -1.518439 -0.301414 -11.367358 -1.481740 -10.711196 -0.008601 2.292758 19.438309 8.630778 -4.198280 -4.573092 2.986267 0.334253 0.032220 -2.935963 -5.518098 11.591384 7.926796 -9.210855 -9.035396 3.865391 -8.251224 9.389431 -6.210280 7.524570 4.317356 0.305610 1.817228 -9.229462 10.821675 -12.392021 -9.435698 -48.459366 -42.025445 15.205746 14.665924 -82.302710 5.393099 8.411542 -12.420220 -18.916420 3.195345 -5.936403 -5.388941 53.113839 -11.672531 12.978338 -155.303638 65.278716 -139.549354 -1.592921 11.334120 -39.261353 
-1.654194 110.762390 3.228172 -179.336390 1.322824 179.546371 13.854637 5.866974 -0.682105 -1.568825 -2.123673 16.696257 -1.235045 9.183728 -15.820250 0.492788 -1.463867 -0.048746 -11.459175 -1.859876 -8.828440 -0.227222 2.529762 16.872892 9.354241 -4.907548 -2.754717 2.951202 0.335455 -0.213059 -3.439975 -4.273575 11.663704 7.580442 -8.308504 -9.091001 4.016172 -7.462795 9.625407 -6.020429 6.210230 4.348516 0.992088 1.976123 -10.019030 9.193917 -10.981892 -8.461950 -51.434970 -39.183299 16.568764 31.160927 -85.492174 -11.970130 10.040040 -12.147611 -22.057340 3.490253 -4.933246 -5.512150 53.589047 -9.102661 11.878075 -150.480718 62.811573 -135.964053 -2.439174 10.206426 -40.071819 
-2.624514 110.877823 4.207915 -178.798747 -0.893283 179.425121 13.962406 4.959508 -2.593947 -2.017669 -2.982198 17.969111 -0.839731 8.906121 -16.343307 0.537944 -1.513313 -0.005382 -11.486538 -2.513845 -7.148314 -0.550213 2.117792 14.144738 10.182020 -5.217487 -1.220620 2.773243 0.425273 -0.355208 -3.749873 -2.692935 11.724522 7.006880 -7.349409 -8.907709 4.076639 -6.541033 9.592334 -5.412047 4.344692 4.180028 1.594494 0.692391 -10.524231 6.953752 -9.088613 -7.349854 -53.714673 -35.460289 17.992624 132.990131 -86.800725 -113.821584 11.189057 -12.086489 -24.733104 4.247919 -3.930474 -6.096291 53.315974 -6.132713 11.179235 -148.918417 59.433552 -134.753987 -2.574042 9.470833 -40.319136 
-4.182237 111.034317 6.049497 -177.967835 -2.664572 178.906398 13.859847 3.888287 -4.688954 -2.602704 -4.036646 19.616033 -0.248769 9.169465 -17.203251 0.532185 -1.553830 0.006145 -11.644719 -3.450715 -5.779989 -0.998901 1.608364 11.657171 11.856251 -4.891306 1.419256 2.649945 0.429095 -0.274561 -3.850751 -1.026944 11.432827 5.738741 -5.856897 -8.819088 4.187162 -5.306628 9.747001 -4.931662 1.432721 4.261696 2.827829 -0.925708 -10.694975 4.284219 -6.611637 -5.951528 -55.164366 -30.731325 18.126594 162.705476 -81.222780 -143.703410 12.297391 -11.884512 -27.107835 4.170117 -2.548068 -6.248226 52.529715 -2.088375 10.241662 -149.994200 56.172068 -136.099281 -3.218870 8.911284 -39.668869 
-5.566464 111.186615 8.047735 -177.052807 -4.345230 178.592136 13.796380 2.577636 -6.732835 -2.997120 -4.878830 20.523624 0.362955 9.594920 -17.472844 0.531185 -1.618884 0.058067 -11.937409 -4.504060 -4.744290 -1.179778 0.845387 9.891125 13.286149 -3.816560 3.534073 2.471237 0.558944 -0.264228 -3.949331 0.668135 11.010335 4.263404 -4.023040 -8.655580 4.197449 -3.558020 9.970248 -4.224596 -1.580012 4.837652 4.044962 -3.278872 -11.177934 2.817083 -3.467191 -4.559804 -57.444608 -25.707732 18.234540 169.427048 -75.748020 -151.217626 12.089210 -12.101698 -30.492145 2.533610 -1.026201 -6.282427 50.443540 3.538323 9.436461 -151.908994 54.782846 -137.645146 -3.034083 8.295744 -37.805544 
-7.354942 111.251434 9.281997 -175.991461 -5.629337 178.964571 13.656307 1.405322 -9.241241 -3.381348 -4.972104 22.152491 1.283363 10.231638 -17.882459 0.497670 -1.744621 0.061716 -12.379480 -5.754332 -4.225816 -1.170294 0.221708 8.741201 14.483043 -3.235445 5.456399 2.038564 0.608906 -0.252532 -3.647690 2.317808 10.818591 2.315393 -1.878338 -8.825066 4.072304 -1.537317 9.878027 -3.225830 -5.324149 4.751235 5.548489 -5.274996 -11.944899 1.698893 -0.197347 -3.338861 -57.975315 -19.636748 17.419537 173.650569 -70.388526 -156.326046 10.594353 -12.813013 -33.940921 -0.114880 1.201283 -6.481675 47.302922 10.772210 7.545089 -150.525710 56.274468 -135.934523 -1.338956 7.805429 -33.788382 
-9.766686 111.188721 10.587836 -174.630515 -7.506840 179.027723 13.477346 0.146295 -12.178150 -4.173901 -5.614223 24.811519 2.571145 11.048651 -18.603187 0.510314 -1.856274 -0.157054 -12.659096 -7.277684 -3.666616 -1.208667 -0.331162 8.227020 14.575941 -3.517881 7.468453 1.783040 0.670965 -0.401467 -2.941872 3.896058 10.805971 0.205121 0.424604 -8.824014 3.761289 0.686390 9.496490 -2.502357 -9.474707 4.592449 7.086898 -7.525866 -12.796466 0.768553 2.558690 -2.206064 -57.088918 -13.802800 16.606713 176.777200 -66.101561 -160.349062 8.279142 -13.928062 -36.399909 -3.480641 4.343414 -6.956607 41.751755 18.898210 3.495878 -141.462060 62.066140 -127.036598 0.900236 7.123570 -26.625230 
-11.052262 110.945648 11.296618 -174.013651 -9.446213 179.328944 13.324904 -0.770759 -14.602208 -5.003766 -6.416896 26.775501 2.997173 11.469085 -19.319199 0.615624 -1.920139 -0.404855 -12.881365 -8.584888 -3.037825 -1.260222 -0.693774 7.810698 14.244707 -3.987218 7.531157 1.778562 0.827492 -0.507633 -2.119427 4.888539 10.854409 -1.982947 2.245825 -8.678457 3.262531 2.532609 9.235183 -1.809454 -13.065330 4.746210 8.361039 -9.250196 -13.618937 -0.059860 4.258300 -1.621152 -56.225271 -9.548010 16.093615 177.673528 -63.497132 -161.539143 6.729035 -15.368152 -38.299750 -6.967143 7.663624 -7.526232 34.049707 25.657056 -1.865138 -111.636711 71.083972 -98.304137 2.810003 6.115558 -19.224241 
-12.792431 110.551712 12.234438 -173.104621 -10.810132 179.348581 13.179110 -1.360840 -16.905495 -6.060326 -6.915055 29.163756 3.563248 12.392808 -20.681529 0.616635 -1.918996 -0.718154 -13.295526 -9.487470 -2.400008 -1.124731 -0.651971 7.390575 14.300192 -4.957104 7.737532 1.724240 0.942222 -0.867718 -1.015010 5.331027 11.805123 -4.113562 3.898339 -8.836973 2.677294 4.100582 9.340018 -1.123780 -16.818470 4.715384 9.088764 -10.256531 -14.235048 -1.126046 5.381222 -0.982204 -55.021452 -5.715005 15.875164 176.775954 -61.393367 -160.810036 6.469899 -16.708485 -39.977275 -10.911501 11.630747 -8.623698 23.529300 31.461395 -9.471687 -42.365204 63.651068 -32.835096 4.956674 4.875936 -11.333787 
-12.623201 110.047394 13.056255 -173.074709 -12.171804 179.226098 13.434024 -1.727207 -18.666301 -7.075207 -7.431664 30.824150 3.619677 12.540863 -21.288154 0.599212 -1.831995 -1.012656 -13.424813 -10.113059 -1.718000 -1.107033 0.054520 7.552184 13.670295 -6.162151 5.707450 1.432016 1.102274 -1.088869 0.078120 5.631345 12.906003 -6.121323 5.299948 -9.006101 2.262597 5.372989 9.488934 -0.593954 -20.128734 4.463721 9.331146 -10.464856 -14.303164 -2.068551 5.913306 -0.596620 -54.475280 -2.798677 16.176798 175.746114 -59.447638 -159.104092 4.576631 -17.609069 -40.306868 -14.558050 15.450907 -9.401241 12.572905 35.184586 -17.517770 -16.385031 41.267839 -11.173065 7.878393 2.817560 -2.104780 
-12.225790 109.518906 13.697516 -173.434921 -13.293852 179.346271 13.403066 -2.060266 -20.410165 -8.000400 -7.873750 32.452909 3.796956 12.646006 -21.686728 0.466537 -1.660920 -1.175368 -13.864604 -10.486372 -1.155438 -1.092365 0.652882 8.079620 13.364639 -6.780530 3.384234 0.750290 1.218838 -1.074671 0.874639 6.335864 13.971024 -7.953656 6.519983 -9.379604 1.940332 6.601010 9.531149 -0.444508 -23.294065 4.466733 9.711103 -11.190294 -14.252712 -2.529657 6.294692 -0.587405 -54.201805 -1.211491 16.441950 175.289488 -58.231240 -158.129212 3.171599 -18.438979 -40.583988 -16.748554 17.931755 -9.334952 4.140514 35.958493 -24.106254 -8.417218 24.731715 -6.544027 10.131272 1.192455 4.054259 
